:FULLY-SPECIFIED
:FORCE-ALL-JOINTS-BE-3DOF
:DEGREES
1053
root 1.24852 15.1936 32.7346 5.51283 -4.07257 3.57202
lfemur 7.23495 0.15027 4.72395
ltibia 3.42229 -0 0
lfoot -32.4471 -11.4424 -0.0437846
ltoes -34.1645 0 0
rfemur -29.847 -13.4868 -7.35359
rtibia 47.7896 -0 0
rfoot -21.3413 3.54282 -0.13042
rtoes -42.3906 0 0
lowerback -2.59712 -0.11317 -0.444358
upperback -0.774569 -0.103576 -6.2718
thorax 0.620792 -0.0534693 -6.27739
lowerneck -7.45522 0.730585 5.81968
upperneck 2.11021 0.265362 3.86456
head 1.93669 0.293921 0.242523
lclavicle 2.3237e-15 1.67121e-14 3.48162e-31
lhumerus -58.7508 -46.0579 114.917
lradius 55.5352 -0 0
lwrist 25.8442 0 0
lhand 38.6367 25.4104 -0.0320908
lfingers 7.12502 -0 0
lthumb 61.2542 37.7854 -0.0315443
rclavicle 2.3237e-15 1.67121e-14 3.48162e-31
rhumerus 2.02489 -17.6045 0.254805
rradius 29.1604 -0 0
rwrist -10.3699 0 0
rhand -27.6059 -40.2166 0.00593914
rfingers 7.12502 -0 0
rthumb -1.00567 -70.1407 0.0106845
1054
root 1.24988 15.193 32.7322 5.49251 -4.04638 3.55578
lfemur 7.23779 0.183618 4.73277
ltibia 3.44318 -0 0
lfoot -32.4415 -11.397 -0.0416146
ltoes -34.162 0 0
rfemur -29.873 -13.5465 -7.31171
rtibia 47.8675 -0 0
rfoot -21.3511 3.59917 -0.124476
rtoes -42.3296 0 0
lowerback -2.57525 -0.111534 -0.450758
upperback -0.763378 -0.101034 -6.25658
thorax 0.621765 -0.0522258 -6.25653
lowerneck -7.46061 0.725554 5.83732
upperneck 2.11383 0.256304 3.86727
head 1.93908 0.289791 0.240007
lclavicle 2.25234e-15 1.74422e-14 3.40381e-31
lhumerus -58.7288 -46.0815 114.931
lradius 55.5416 -0 0
lwrist 25.8309 0 0
lhand 38.5964 25.4063 -0.030495
lfingers 7.12502 -0 0
lthumb 61.22 37.8198 -0.0304042
rclavicle 2.25234e-15 1.74422e-14 3.40381e-31
rhumerus 2.00969 -17.8002 0.249145
rradius 29.1103 -0 0
rwrist -10.317 0 0
rhand -27.7275 -40.2592 0.00723606
rfingers 7.12502 -0 0
rthumb -1.12308 -70.184 0.0117366
1055
root 1.25121 15.1923 32.7298 5.47246 -4.02065 3.53973
lfemur 7.2407 0.21644 4.74154
ltibia 3.46367 -0 0
lfoot -32.4359 -11.3522 -0.0394822
ltoes -34.1596 0 0
rfemur -29.8987 -13.6053 -7.27042
rtibia 47.9443 -0 0
rfoot -21.3609 3.65482 -0.11861
rtoes -42.2696 0 0
lowerback -2.55368 -0.109893 -0.457059
upperback -0.752336 -0.0984966 -6.24155
thorax 0.622738 -0.0509822 -6.23595
lowerneck -7.46594 0.720607 5.85477
upperneck 2.11739 0.247382 3.86994
head 1.94144 0.285723 0.237515
lclavicle 2.18208e-15 1.81636e-14 3.3185e-31
lhumerus -58.7071 -46.1048 114.946
lradius 55.548 -0 0
lwrist 25.8178 0 0
lhand 38.5566 25.4022 -0.0289266
lfingers 7.12502 -0 0
lthumb 61.1863 37.8538 -0.0292595
rclavicle 2.18208e-15 1.81636e-14 3.3185e-31
rhumerus 1.99488 -17.9937 0.243851
rradius 29.0607 -0 0
rwrist -10.2647 0 0
rhand -27.8476 -40.3013 0.00841778
rfingers 7.12502 -0 0
rthumb -1.23903 -70.2267 0.0126788
1056
root 1.25252 15.1917 32.7275 5.45271 -3.99539 3.52389
lfemur 7.24368 0.248703 4.75028
ltibia 3.48371 -0 0
lfoot -32.4306 -11.308 -0.0373888
ltoes -34.1574 0 0
rfemur -29.924 -13.6634 -7.22969
rtibia 48.0198 -0 0
rfoot -21.3707 3.70973 -0.112827
rtoes -42.2105 0 0
lowerback -2.53244 -0.108244 -0.463255
upperback -0.741447 -0.0959607 -6.22674
thorax 0.623709 -0.0497367 -6.21567
lowerneck -7.4712 0.715748 5.87203
upperneck 2.12089 0.238604 3.87258
head 1.94376 0.281722 0.235049
lclavicle 2.11299e-15 1.88763e-14 3.22615e-31
lhumerus -58.6858 -46.1279 114.96
lradius 55.5542 -0 0
lwrist 25.805 0 0
lhand 38.5174 25.3983 -0.0273866
lfingers 7.12502 -0 0
lthumb 61.1531 37.8874 -0.0281116
rclavicle 2.11299e-15 1.88763e-14 3.22615e-31
rhumerus 1.98048 -18.185 0.23896
rradius 29.0113 -0 0
rwrist -10.213 0 0
rhand -27.9661 -40.3427 0.00948583
rfingers 7.12502 -0 0
rthumb -1.35349 -70.2688 0.0135128
1057
root 1.25379 15.1911 32.7252 5.43326 -3.97065 3.50825
lfemur 7.24675 0.280379 4.759
ltibia 3.50329 -0 0
lfoot -32.4254 -11.2644 -0.0353359
ltoes -34.1555 0 0
rfemur -29.9488 -13.7205 -7.18958
rtibia 48.0941 -0 0
rfoot -21.3807 3.76387 -0.107131
rtoes -42.1524 0 0
lowerback -2.51154 -0.106584 -0.469341
upperback -0.730717 -0.0934228 -6.21214
thorax 0.624682 -0.0484875 -6.1957
lowerneck -7.47639 0.710983 5.8891
upperneck 2.12433 0.229975 3.87517
head 1.94604 0.277792 0.232608
lclavicle 2.04514e-15 1.958e-14 3.12726e-31
lhumerus -58.6648 -46.1506 114.974
lradius 55.5603 -0 0
lwrist 25.7923 0 0
lhand 38.4787 25.3945 -0.0258764
lfingers 7.12502 -0 0
lthumb 61.1203 37.9206 -0.0269622
rclavicle 2.04514e-15 1.958e-14 3.12726e-31
rhumerus 1.96652 -18.3739 0.234506
rradius 28.9622 -0 0
rwrist -10.1618 0 0
rhand -28.083 -40.3835 0.0104419
rfingers 7.12502 -0 0
rthumb -1.4664 -70.3103 0.0142403
1058
root 1.25503 15.1905 32.7229 5.41412 -3.94643 3.49282
lfemur 7.24992 0.311435 4.7677
ltibia 3.52237 -0 0
lfoot -32.4204 -11.2215 -0.0333253
ltoes -34.1538 0 0
rfemur -29.9733 -13.7767 -7.1501
rtibia 48.1669 -0 0
rfoot -21.3908 3.81723 -0.101527
rtoes -42.0952 0 0
lowerback -2.49099 -0.104912 -0.475311
upperback -0.720154 -0.0908794 -6.19777
thorax 0.625656 -0.0472329 -6.17605
lowerneck -7.48151 0.706315 5.90597
upperneck 2.1277 0.221504 3.87771
head 1.94829 0.273934 0.230193
lclavicle 1.97858e-15 2.02744e-14 3.02234e-31
lhumerus -58.6442 -46.1731 114.988
lradius 55.5663 -0 0
lwrist 25.7799 0 0
lhand 38.4406 25.3908 -0.0243975
lfingers 7.12502 -0 0
lthumb 61.088 37.9534 -0.0258125
rclavicle 1.97858e-15 2.02744e-14 3.02234e-31
rhumerus 1.95303 -18.5605 0.230525
rradius 28.9135 -0 0
rwrist -10.1113 0 0
rhand -28.1983 -40.4236 0.0112877
rfingers 7.12502 -0 0
rthumb -1.57771 -70.3511 0.0148634
1059
root 1.25624 15.1899 32.7207 5.39531 -3.92277 3.47762
lfemur 7.2532 0.341842 4.77638
ltibia 3.54092 -0 0
lfoot -32.4155 -11.1792 -0.0313582
ltoes -34.1523 0 0
rfemur -29.9972 -13.832 -7.11129
rtibia 48.2383 -0 0
rfoot -21.4009 3.86977 -0.0960189
rtoes -42.0391 0 0
lowerback -2.47081 -0.103224 -0.48116
upperback -0.709763 -0.0883275 -6.18362
thorax 0.626633 -0.0459711 -6.15673
lowerneck -7.48656 0.701752 5.92265
upperneck 2.131 0.213198 3.88021
head 1.9505 0.270154 0.227805
lclavicle 1.91338e-15 2.09593e-14 2.91192e-31
lhumerus -58.6241 -46.1952 115.002
lradius 55.5722 -0 0
lwrist 25.7678 0 0
lhand 38.4031 25.3873 -0.0229502
lfingers 7.12502 -0 0
lthumb 61.0562 37.9858 -0.0246641
rclavicle 1.91338e-15 2.09593e-14 2.91192e-31
rhumerus 1.94006 -18.7448 0.22705
rradius 28.865 -0 0
rwrist -10.0614 0 0
rhand -28.3119 -40.4631 0.0120253
rfingers 7.12502 -0 0
rthumb -1.68737 -70.3912 0.0153839
1060
root 1.25741 15.1893 32.7186 5.37684 -3.89971 3.46264
lfemur 7.2566 0.37157 4.78505
ltibia 3.55891 -0 0
lfoot -32.4109 -11.1377 -0.0294363
ltoes -34.1511 0 0
rfemur -30.0207 -13.8863 -7.07317
rtibia 48.3082 -0 0
rfoot -21.4113 3.92146 -0.0906119
rtoes -41.9841 0 0
lowerback -2.45101 -0.101518 -0.486882
upperback -0.699551 -0.0857634 -6.16972
thorax 0.627614 -0.0447004 -6.13776
lowerneck -7.49153 0.697296 5.93912
upperneck 2.13424 0.205064 3.88266
head 1.95266 0.266454 0.225442
lclavicle 1.84961e-15 2.16344e-14 2.79651e-31
lhumerus -58.6043 -46.217 115.015
lradius 55.5779 -0 0
lwrist 25.7559 0 0
lhand 38.3663 25.3839 -0.0215359
lfingers 7.12502 -0 0
lthumb 61.025 38.0178 -0.0235186
rclavicle 1.84961e-15 2.16344e-14 2.79651e-31
rhumerus 1.92762 -18.9265 0.224119
rradius 28.8167 -0 0
rwrist -10.0121 0 0
rhand -28.4237 -40.5018 0.0126567
rfingers 7.12502 -0 0
rthumb -1.79533 -70.4306 0.015804
1061
root 1.25855 15.1886 32.7165 5.35873 -3.87726 3.44789
lfemur 7.26014 0.400577 4.79372
ltibia 3.57632 -0 0
lfoot -32.4065 -11.0968 -0.0275609
ltoes -34.1502 0 0
rfemur -30.0437 -13.9395 -7.03578
rtibia 48.3765 -0 0
rfoot -21.4218 3.97229 -0.0853104
rtoes -41.9303 0 0
lowerback -2.43161 -0.0997921 -0.492471
upperback -0.689522 -0.0831841 -6.15607
thorax 0.6286 -0.043419 -6.11915
lowerneck -7.49642 0.692954 5.95539
upperneck 2.13739 0.19711 3.88506
head 1.95479 0.262838 0.223106
lclavicle 1.78731e-15 2.22996e-14 2.67669e-31
lhumerus -58.5851 -46.2385 115.029
lradius 55.5835 -0 0
lwrist 25.7444 0 0
lhand 38.3301 25.3806 -0.020156
lfingers 7.12502 -0 0
lthumb 60.9943 38.0493 -0.0223775
rclavicle 1.78731e-15 2.22996e-14 2.67669e-31
rhumerus 1.91575 -19.1058 0.221764
rradius 28.7687 -0 0
rwrist -9.96348 0 0
rhand -28.5337 -40.5398 0.0131839
rfingers 7.12502 -0 0
rthumb -1.90154 -70.4693 0.016126
1062
root 1.25964 15.188 32.7144 5.34098 -3.85546 3.43339
lfemur 7.26382 0.428853 4.8024
ltibia 3.5931 -0 0
lfoot -32.4023 -11.0567 -0.0257336
ltoes -34.1496 0 0
rfemur -30.0662 -13.9918 -6.99914
rtibia 48.4431 -0 0
rfoot -21.4324 4.02223 -0.0801187
rtoes -41.8776 0 0
lowerback -2.41263 -0.0980427 -0.497923
upperback -0.679684 -0.080586 -6.14267
thorax 0.629591 -0.0421251 -6.10091
lowerneck -7.50124 0.688729 5.97146
upperneck 2.14047 0.189343 3.8874
head 1.95686 0.259309 0.220797
lclavicle 1.72656e-15 2.29545e-14 2.55299e-31
lhumerus -58.5662 -46.2597 115.043
lradius 55.589 -0 0
lwrist 25.7331 0 0
lhand 38.2945 25.3776 -0.0188114
lfingers 7.12502 -0 0
lthumb 60.9642 38.0804 -0.0212424
rclavicle 1.72656e-15 2.29545e-14 2.55299e-31
rhumerus 1.90448 -19.2826 0.220021
rradius 28.7208 -0 0
rwrist -9.91551 0 0
rhand -28.6418 -40.5771 0.0136093
rfingers 7.12502 -0 0
rthumb -2.00596 -70.5072 0.0163523
1063
root 1.2607 15.1874 32.7124 5.32361 -3.83433 3.41914
lfemur 7.26767 0.456357 4.81108
ltibia 3.60923 -0 0
lfoot -32.3983 -11.0174 -0.0239559
ltoes -34.1493 0 0
rfemur -30.0881 -14.0429 -6.96328
rtibia 48.5081 -0 0
rfoot -21.4433 4.07125 -0.0750413
rtoes -41.8261 0 0
lowerback -2.39407 -0.0962679 -0.503232
upperback -0.670043 -0.0779658 -6.12954
thorax 0.63059 -0.040817 -6.08305
lowerneck -7.50597 0.684627 5.98731
upperneck 2.14347 0.181769 3.88969
head 1.95889 0.25587 0.218514
lclavicle 1.66741e-15 2.3599e-14 2.426e-31
lhumerus -58.5479 -46.2805 115.056
lradius 55.5943 -0 0
lwrist 25.7221 0 0
lhand 38.2596 25.3747 -0.0175033
lfingers 7.12502 -0 0
lthumb 60.9347 38.111 -0.0201148
rclavicle 1.66741e-15 2.3599e-14 2.426e-31
rhumerus 1.89384 -19.4567 0.218924
rradius 28.6732 -0 0
rwrist -9.86821 0 0
rhand -28.748 -40.6135 0.0139352
rfingers 7.12502 -0 0
rthumb -2.10852 -70.5443 0.0164851
